<svg width="18" height="18" viewBox="0 0 18 18" fill="none" xmlns="http://www.w3.org/2000/svg">
<path d="M9.97508 9.83268H4.83342V8.16602H9.97508L7.82508 6.00768L9.00008 4.83268L13.1667 8.99935L9.00008 13.166L7.82508 11.991L9.97508 9.83268Z" fill="#0088FF"/>
<path fill-rule="evenodd" clip-rule="evenodd" d="M0.666748 8.99935C0.666748 4.39698 4.39771 0.666015 9.00008 0.666016C13.6025 0.666016 17.3334 4.39698 17.3334 8.99935C17.3334 13.6017 13.6025 17.3327 9.00008 17.3327C4.39771 17.3327 0.666748 13.6017 0.666748 8.99935ZM2.33341 8.99935C2.33342 5.31745 5.31818 2.33268 9.00008 2.33268C12.682 2.33268 15.6667 5.31745 15.6667 8.99935C15.6667 12.6812 12.682 15.666 9.00008 15.666C5.31818 15.666 2.33341 12.6812 2.33341 8.99935Z" fill="#0088FF"/>
</svg>
