<?xml version="1.0" encoding="utf-8"?>
<!-- Generator: Adobe Illustrator 24.1.3, SVG Export Plug-In . SVG Version: 6.00 Build 0)  -->
<svg version="1.1" id="Layer_1" xmlns="http://www.w3.org/2000/svg" xmlns:xlink="http://www.w3.org/1999/xlink" x="0px" y="0px"
	 viewBox="0 0 20.54 20.54" style="enable-background:new 0 0 20.54 20.54;" xml:space="preserve">
<style type="text/css">
	.st0{fill:#ADADAD;}
</style>
<path class="st0" d="M19.67,16.27l-6-6l6-6c0.94-0.94,0.94-2.46,0-3.4s-2.46-0.94-3.4,0l-6,6l-6-6c-0.94-0.94-2.46-0.94-3.4,0
	s-0.94,2.46,0,3.4l6,6l-6,6c-0.94,0.94-0.94,2.46,0,3.4c0.94,0.94,2.46,0.94,3.4,0l6-6l6,6c0.94,0.94,2.46,0.94,3.4,0
	C20.61,18.73,20.61,17.21,19.67,16.27z"/>
</svg>
